<svg width="10" height="14" viewBox="0 0 10 14" fill="none" xmlns="http://www.w3.org/2000/svg">
<path opacity="0.8" d="M4.41532 9.54902C4.41532 9.03922 4.50269 8.59477 4.67742 8.21569C4.85215 7.8366 5.0672 7.49673 5.32258 7.19608C5.5914 6.89542 5.88038 6.62091 6.18952 6.37255C6.49866 6.11111 6.78764 5.85621 7.05645 5.60784C7.32527 5.3464 7.54032 5.07189 7.70161 4.78431C7.87634 4.49673 7.96371 4.1634 7.96371 3.78431C7.96371 3.15686 7.70833 2.64706 7.19758 2.2549C6.68683 1.86274 5.98118 1.66667 5.08065 1.66667C4.27419 1.66667 3.57527 1.79738 2.98387 2.05882C2.39247 2.32026 1.88844 2.70588 1.47177 3.21569L0 2.19608C0.564516 1.50327 1.2836 0.967319 2.15726 0.588235C3.03091 0.196078 4.05242 0 5.22177 0C6.18952 0 7.02957 0.143791 7.74194 0.431372C8.4543 0.705882 9.00538 1.10457 9.39516 1.62745C9.79839 2.13725 10 2.75817 10 3.4902C10 4.03922 9.91263 4.5098 9.7379 4.90196C9.56317 5.29412 9.3414 5.64052 9.07258 5.94118C8.80376 6.24183 8.51479 6.52287 8.20565 6.78431C7.90995 7.04575 7.62769 7.30719 7.35887 7.56863C7.09005 7.83006 6.86828 8.11765 6.69355 8.43137C6.51882 8.7451 6.43145 9.11765 6.43145 9.54902H4.41532ZM5.44355 14C5.0672 14 4.75134 13.8758 4.49597 13.6275C4.25403 13.3791 4.13306 13.085 4.13306 12.7451C4.13306 12.3791 4.25403 12.0784 4.49597 11.8431C4.75134 11.6078 5.0672 11.4902 5.44355 11.4902C5.81989 11.4902 6.12903 11.6078 6.37097 11.8431C6.6129 12.0784 6.73387 12.3791 6.73387 12.7451C6.73387 13.085 6.6129 13.3791 6.37097 13.6275C6.12903 13.8758 5.81989 14 5.44355 14Z" fill="white"/>
</svg>
